{"title":"NE-YO - Beautiful Monster and Champagne Life [KingPinVideos]","uid":5756399,"size":349604969,"categoryP":"video","categoryS":"music_videos","magnet":"?xt=urn:btih:a42c229d74a3924dcfda725cc32eff2c37991a53&amp;dn=NE-YO+-+Beautiful+Monster+and+Champagne+Life+%5BKingPinVideos%5D&amp;tr=udp%3A%2F%2Ftracker.openbittorrent.com%3A80&amp;tr=udp%3A%2F%2Fopen.demonii.com%3A1337&amp;tr=udp%3A%2F%2Ftracker.coppersurfer.tk%3A6969&amp;tr=udp%3A%2F%2Fexodus.desync.com%3A6969","seeders":0,"leechers":0,"uploader":"KingPinMan","files":7,"time":1281576196,"description":"Two Eight Minutes Short Music Videos! Kinda Like Mini Movies!\n\n[img]http://a.imageshack.us/img33/3843/neyomonster.png[/img]\n\n[img]http://a.imageshack.us/img268/9937/neyomonster2.png[/img]\n\n[code]General\nComplete name                    : NE-YO - Beautiful Monster [KingPinVideos].mpg\nFormat                           : MPEG-PS\nFile size                        : 166 MiB\nDuration                         : 8mn 6s\nOverall bit rate                 : 2 856 Kbps\nWriting library                  : encoded by TMPGEnc 4.0 XPress Version. 4.7.4.299\n\nVideo\nID                               : 224 (0xE0)\nFormat                           : MPEG Video\nFormat version                   : Version 1\nFormat settings, BVOP            : Yes\nFormat settings, Matrix          : Default\nDuration                         : 8mn 6s\nBit rate mode                    : Constant\nBit rate                         : 2 615 Kbps\nNominal bit rate                 : 2 700 Kbps\nWidth                            : 384 pixels\nHeight                           : 208 pixels\nDisplay aspect ratio             : 16:9\nFrame rate                       : 29.970 fps\nResolution                       : 8 bits\nScan type                        : Progressive\nBits/(Pixel*Frame)               : 1.092\nStream size                      : 152 MiB (92%)\nWriting library                  : TMPGEnc XPress 4.7.4.299\n\nAudio\nID                               : 192 (0xC0)\nFormat                           : MPEG Audio\nFormat version                   : Version 1\nFormat profile                   : Layer 2\nDuration                         : 8mn 6s\nBit rate mode                    : Constant\nBit rate                         : 128 Kbps\nChannel(s)                       : 2 channels\nSampling rate                    : 48.0 KHz\nStream size                      : 7.42 MiB (4%)\n[/code]\n\n[img]http://a.imageshack.us/img840/7365/neyochampagne.png[/img]\n\n[img]http://a.imageshack.us/img594/394/neyochampagne2.png[/img]\n\n[code]General\nComplete name                    : NE-YO - Champagne Life [KingPinVideos].mpg\nFormat                           : MPEG-PS\nFile size                        : 168 MiB\nDuration                         : 8mn 13s\nOverall bit rate                 : 2 856 Kbps\nWriting library                  : encoded by TMPGEnc 4.0 XPress Version. 4.7.4.299\n\nVideo\nID                               : 224 (0xE0)\nFormat                           : MPEG Video\nFormat version                   : Version 1\nFormat settings, BVOP            : Yes\nFormat settings, Matrix          : Default\nDuration                         : 8mn 13s\nBit rate mode                    : Constant\nBit rate                         : 2 615 Kbps\nNominal bit rate                 : 2 700 Kbps\nWidth                            : 384 pixels\nHeight                           : 208 pixels\nDisplay aspect ratio             : 16:9\nFrame rate                       : 29.970 fps\nResolution                       : 8 bits\nScan type                        : Progressive\nBits/(Pixel*Frame)               : 1.092\nStream size                      : 154 MiB (92%)\nWriting library                  : TMPGEnc XPress 4.7.4.299\n\nAudio\nID                               : 192 (0xC0)\nFormat                           : MPEG Audio\nFormat version                   : Version 1\nFormat profile                   : Layer 2\nDuration                         : 8mn 13s\nBit rate mode                    : Constant\nBit rate                         : 128 Kbps\nChannel(s)                       : 2 channels\nSampling rate                    : 48.0 KHz\nStream size                      : 7.52 MiB (4%)\n\n[/code]\n\nOnly the best at KingPinVideos.com","torrent":{"xt":"urn:btih:a42c229d74a3924dcfda725cc32eff2c37991a53","amp;dn":"NE-YO+-+Beautiful+Monster+and+Champagne+Life+%5BKingPinVideos%5D","amp;tr":["udp%3A%2F%2Ftracker.openbittorrent.com%3A80","udp%3A%2F%2Fopen.demonii.com%3A1337","udp%3A%2F%2Ftracker.coppersurfer.tk%3A6969","udp%3A%2F%2Fexodus.desync.com%3A6969"],"infoHash":"a42c229d74a3924dcfda725cc32eff2c37991a53","infoHashBuffer":{"type":"Buffer","data":[164,44,34,157,116,163,146,77,207,218,114,92,195,46,255,44,55,153,26,83]},"announce":[],"urlList":[]}}